<?xml version="1.0" encoding="UTF-8"?>
<svg width="70px" height="70px" viewBox="0 0 70 70" version="1.1" xmlns="http://www.w3.org/2000/svg" xmlns:xlink="http://www.w3.org/1999/xlink">
    <!-- Generator: Sketch 41.1 (35376) - http://www.bohemiancoding.com/sketch -->
    <title>sloth</title>
    <desc>Created with Sketch.</desc>
    <defs>
        <circle id="path-1" cx="35" cy="35" r="35"></circle>
        <path d="M24,81 C35.045695,81 44,67.778409 44,51.46875 C44,35.159091 35.045695,27 24,27 C12.954305,27 4,35.159091 4,51.46875 C4,67.778409 12.954305,81 24,81 Z" id="path-3"></path>
        <path d="M40.5106322,64.6396808 C46.1827552,71.598253 46.618534,62.9539179 47.0663167,54.0714637 C47.5140995,45.1890096 46.7989418,39.4629566 44.9660454,39.1846605 C43.1331489,38.9063644 38.6071818,44.1043802 38.6071818,52.7870791 C38.6071818,61.469778 34.8385091,57.6811086 40.5106322,64.6396808 Z" id="path-5"></path>
        <path d="M3.20363259,64.6469328 C8.87575568,71.6081503 9.31153439,62.9605291 9.75931717,54.0746984 C10.2070999,45.1888677 10.4574705,39.1822361 7.6590458,39.1822361 C4.86062114,39.1822361 1.30018222,44.103826 1.30018222,52.7898255 C1.30018222,61.4758251 -2.4684905,57.6857154 3.20363259,64.6469328 Z" id="path-7"></path>
        <path d="M24,45 C45,45 45,35.6959175 45,24.21875 C45,12.7415825 35.5979797,7 24,7 C12.4020203,7 3,12.7415825 3,24.21875 C3,35.6959175 3,45 24,45 Z" id="path-9"></path>
        <path d="M24,39 C35.045695,39 44,31.1649831 44,21.5 C44,11.8350169 35.045695,7 24,7 C12.954305,7 4,11.8350169 4,21.5 C4,31.1649831 12.954305,39 24,39 Z" id="path-11"></path>
        <path d="M0.279316432,10.4137608 C0.236393098,10.0675793 0.214285714,9.71494278 0.214285714,9.35714286 C0.214285714,4.66272248 4.01986534,0.857142857 8.71428571,0.857142857 C10.9151596,0.857142857 12.9206668,1.69360668 14.4302434,3.06597024 C16.2497121,4.2719667 17.1509395,5.71428571 17.1509395,5.71428571 C17.1509395,5.71428571 17.5881073,5.00073951 18.4825684,4.16666914 C20.0369897,2.15365249 22.4742297,0.857142857 25.2142857,0.857142857 C28.825031,0.857142857 31.9099362,3.10853203 33.1417835,6.2840926 C34.0800588,8.33137553 34.2983671,10.8065103 34.2142857,13.2142857 C33.9782628,19.9730985 29.0682317,28.2336767 17.3218639,27.8234845 C5.57549607,27.4132923 -0.0217372296,19.9730985 0.214285714,13.2142857 C0.246317978,12.2970017 0.246162283,11.3517227 0.279316432,10.4137608 Z" id="path-13"></path>
        <path d="M4.61897133,42.031039 C7.12306607,42.031039 8.98998586,40.4998845 8.98998586,38.3939684 C8.98998586,36.2880524 6.55404791,35.5271318 4.04995317,35.5271318 C1.54585843,35.5271318 0.0164917296,37.0731314 0.0164917296,39.1790474 C0.0164917296,41.2849635 2.11487658,42.031039 4.61897133,42.031039 Z" id="path-15"></path>
        <path d="M43.6189713,42.031039 C46.1230661,42.031039 47.9899859,40.4998845 47.9899859,38.3939684 C47.9899859,36.2880524 45.5540479,35.5271318 43.0499532,35.5271318 C40.5458584,35.5271318 39.0164917,37.0731314 39.0164917,39.1790474 C39.0164917,41.2849635 41.1148766,42.031039 43.6189713,42.031039 Z" id="path-17"></path>
        <path d="M47.3068814,39.0116719 C47.2594904,38.0732252 46.6254279,37.9703974 45.7361356,38.2202149 C45.4231162,38.3081474 45.1138342,38.5126844 44.822625,38.8024655 C44.7875125,38.4743174 44.6325128,38.2785246 44.3288388,38.2519502 C42.8449163,38.1220928 41.4981048,39.6614811 41.3206511,41.6902701 C41.1618125,43.5062369 41.4741654,44.3894235 42.7146487,44.7966872 C42.667429,44.5206634 42.6157624,44.5886296 43.0453698,43.6932876 C43.0500473,43.8361991 43.0603396,43.9770083 43.0765809,44.1149843 C43.3221747,46.2013963 44.5136192,46.9146307 44.5136192,46.9146307 C44.5136192,46.9146307 44.6908058,46.2893809 45.1269255,44.1323665 C45.6728788,46.1155718 46.9599743,46.4612017 46.9599743,46.4612017 C46.9599743,46.4612017 47.4017795,47.039416 47.4591769,44.0111115 C47.5165744,40.982807 48.262169,41.6071301 48.0849148,40.0603581 C48.0017859,39.3349513 47.7189858,39.0369535 47.3068814,39.0116719 Z" id="path-19"></path>
        <mask id="mask-20" maskContentUnits="userSpaceOnUse" maskUnits="objectBoundingBox" x="0" y="0" width="6.82964369" height="8.81103842" fill="white">
            <use xlink:href="#path-19"></use>
        </mask>
        <path d="M6.14299797,39.0110558 C6.11756424,38.0598729 5.50706856,37.9629521 4.64315537,38.2252508 C4.35081546,38.3140102 4.06038197,38.5114462 3.784727,38.7890847 C3.75481239,38.4734051 3.60832177,38.2878818 3.31758102,38.2681181 C1.87950387,38.170362 0.540520873,39.7152319 0.326878801,41.7186815 C0.135648023,43.5119671 0.420905402,44.3761812 1.6169755,44.7523464 C1.57608661,44.4767066 1.52348766,44.5516362 1.98273311,43.6125886 C1.98292655,43.7879927 1.99115536,43.9603894 2.00802851,44.1284314 C2.21623313,46.2019693 3.35194197,46.8960124 3.35194197,46.8960124 C3.35194197,46.8960124 3.53146831,46.2682575 3.98186052,44.1027645 C4.48567898,46.1120384 5.73084629,46.4527401 5.73084629,46.4527401 C5.73084629,46.4527401 6.15007742,47.027379 6.22534493,44.0019049 C6.30061245,40.9764307 7.01046698,41.5950932 6.85108279,40.0511515 C6.77824446,39.3455725 6.52111161,39.0466807 6.14299797,39.0110558 Z" id="path-21"></path>
        <mask id="mask-22" maskContentUnits="userSpaceOnUse" maskUnits="objectBoundingBox" x="0" y="0" width="6.60190594" height="8.79648222" fill="white">
            <use xlink:href="#path-21"></use>
        </mask>
        <rect id="path-23" x="1.71428571" y="1.71428571" width="0.571428571" height="1.71428571"></rect>
        <mask id="mask-24" maskContentUnits="userSpaceOnUse" maskUnits="objectBoundingBox" x="0" y="0" width="0.571428571" height="1.71428571" fill="white">
            <use xlink:href="#path-23"></use>
        </mask>
        <rect id="path-25" x="3.42857143" y="1.71428571" width="0.571428571" height="1.71428571"></rect>
        <mask id="mask-26" maskContentUnits="userSpaceOnUse" maskUnits="objectBoundingBox" x="0" y="0" width="0.571428571" height="1.71428571" fill="white">
            <use xlink:href="#path-25"></use>
        </mask>
    </defs>
    <g id="Avatar" stroke="none" stroke-width="1" fill="none" fill-rule="evenodd">
        <g id="sloth" transform="translate(-3.000000, -3.000000)">
            <g transform="translate(3.000000, 3.000000)">
                <mask id="mask-2" fill="white">
                    <use xlink:href="#path-1"></use>
                </mask>
                <use id="bg" fill="#FFF0B4" xlink:href="#path-1"></use>
                <g mask="url(#mask-2)">
                    <g transform="translate(11.000000, 7.000000)">
                        <mask id="mask-4" fill="white">
                            <use xlink:href="#path-3"></use>
                        </mask>
                        <use id="body" stroke="none" fill="#C0945C" fill-rule="evenodd" xlink:href="#path-3"></use>
                        <mask id="mask-6" fill="white">
                            <use xlink:href="#path-5"></use>
                        </mask>
                        <use id="body-copy-6" stroke="#D6A669" stroke-width="1" fill="#C0945C" fill-rule="evenodd" transform="translate(42.288053, 53.174021) scale(-1, 1) rotate(-5.000000) translate(-42.288053, -53.174021) " xlink:href="#path-5"></use>
                        <mask id="mask-8" fill="white">
                            <use xlink:href="#path-7"></use>
                        </mask>
                        <use id="body-copy-7" stroke="#D6A669" stroke-width="1" fill="#C0945C" fill-rule="evenodd" transform="translate(5.054422, 53.182236) rotate(-5.000000) translate(-5.054422, -53.182236) " xlink:href="#path-7"></use>
                        <mask id="mask-10" fill="white">
                            <use xlink:href="#path-9"></use>
                        </mask>
                        <use id="head-copy-2" stroke="none" fill="#C0945C" fill-rule="evenodd" xlink:href="#path-9"></use>
                        <mask id="mask-12" fill="white">
                            <use xlink:href="#path-11"></use>
                        </mask>
                        <use id="head" stroke="none" fill="#C0945C" fill-rule="evenodd" xlink:href="#path-11"></use>
                        <g id="face" stroke="none" stroke-width="1" fill="none" fill-rule="evenodd" mask="url(#mask-12)">
                            <g transform="translate(7.285714, 12.285714)">
                                <ellipse id="shadow" fill-opacity="0.439679574" fill="#FFD6DB" cx="16.8331499" cy="16.624683" rx="15.0429232" ry="8.96114467"></ellipse>
                                <g id="lefteye-+-lefteye-copy-Mask" stroke-width="1" fill="none">
                                    <mask id="mask-14" fill="white">
                                        <use xlink:href="#path-13"></use>
                                    </mask>
                                    <use id="Combined-Shape" fill="#FEF7DF" xlink:href="#path-13"></use>
                                    <g id="lefteye" mask="url(#mask-14)">
                                        <g transform="translate(-8.912833, 2.285714)">
                                            <path d="M7.49453711,31.5770994 C9.46619873,31.0035347 9.20217157,28.7222808 8.63485472,26.7025497 C8.06753787,24.6828186 7.58613918,23.3993772 8.263539,19.4462352 C9.8067211,10.4405966 37.5966452,19.5544169 38.0031998,18.9567177 C38.4097543,18.3590186 10.7318012,11.3009612 8.56658038,11.3009612 C6.24282838,11.3009612 1.45159789,15.8969996 1.45159789,19.5574985 C1.45159789,23.2179974 2.94973315,32.899202 7.49453711,31.5770994 Z" id="Oval-Copy-2" stroke="none" fill-opacity="0.785354393" fill="#785555" transform="translate(19.729616, 21.500590) scale(1, -1) rotate(-55.000000) translate(-19.729616, -21.500590) "></path>
                                            <path d="M17.7699758,8.31703876 C19.0323409,8.31703876 20.0556901,7.29368961 20.0556901,6.03132447 C20.0556901,4.76895933 19.0323409,4.92132943 17.7699758,4.92132943 C16.5076106,4.92132943 15.4842615,4.76895933 15.4842615,6.03132447 C15.4842615,7.29368961 16.5076106,8.31703876 17.7699758,8.31703876 Z" id="Oval-3" stroke="#785555" stroke-width="1" fill="#674A4A"></path>
                                            <path d="M19.1985472,6.85714286 C19.8297298,6.85714286 20.3414044,6.47338693 20.3414044,6 C20.3414044,5.52661307 20.3414044,5.42857143 19.1985472,5.42857143 C18.0556901,5.42857143 18.0556901,5.52661307 18.0556901,6 C18.0556901,6.47338693 18.5673646,6.85714286 19.1985472,6.85714286 Z" id="Oval-2" stroke="none" fill="#FFFFFF"></path>
                                        </g>
                                    </g>
                                    <g id="lefteye-copy" mask="url(#mask-14)">
                                        <g transform="translate(22.587167, 23.785714) scale(-1, 1) translate(-22.587167, -23.785714) translate(3.087167, 2.285714)">
                                            <path d="M7.49453711,31.5770994 C9.46619873,31.0035347 9.20217157,28.7222808 8.63485472,26.7025497 C8.06753787,24.6828186 7.58613918,23.3993772 8.263539,19.4462352 C9.8067211,10.4405966 37.5966452,19.5544169 38.0031998,18.9567177 C38.4097543,18.3590186 10.7318012,11.3009612 8.56658038,11.3009612 C6.24282838,11.3009612 1.45159789,15.8969996 1.45159789,19.5574985 C1.45159789,23.2179974 2.94973315,32.899202 7.49453711,31.5770994 Z" id="Oval-Copy-2" stroke="none" fill-opacity="0.785354393" fill="#785555" transform="translate(19.729616, 21.500590) scale(1, -1) rotate(-55.000000) translate(-19.729616, -21.500590) "></path>
                                            <path d="M17.7699758,8.31703876 C19.0323409,8.31703876 20.0556901,7.29368961 20.0556901,6.03132447 C20.0556901,4.76895933 19.0323409,4.92132943 17.7699758,4.92132943 C16.5076106,4.92132943 15.4842615,4.76895933 15.4842615,6.03132447 C15.4842615,7.29368961 16.5076106,8.31703876 17.7699758,8.31703876 Z" id="Oval-3" stroke="#785555" stroke-width="1" fill="#674A4A"></path>
                                            <path d="M19.1985472,6.85714286 C19.8297298,6.85714286 20.3414044,6.47338693 20.3414044,6 C20.3414044,5.52661307 20.3414044,5.42857143 19.1985472,5.42857143 C18.0556901,5.42857143 18.0556901,5.52661307 18.0556901,6 C18.0556901,6.47338693 18.5673646,6.85714286 19.1985472,6.85714286 Z" id="Oval-2" stroke="none" fill="#FFFFFF"></path>
                                        </g>
                                    </g>
                                </g>
                            </g>
                        </g>
                        <path d="M17,28 C17,28 18.25,30.5 24.0833333,30.5 C29.9166667,30.5 32,28 32,28" id="Line" stroke="#785555" stroke-width="1" stroke-linecap="square" fill="none" mask="url(#mask-12)"></path>
                        <mask id="mask-16" fill="white">
                            <use xlink:href="#path-15"></use>
                        </mask>
                        <use id="body-copy-2" stroke="none" fill="#C0945C" fill-rule="evenodd" transform="translate(4.503239, 38.779085) scale(-1, 1) rotate(5.000000) translate(-4.503239, -38.779085) " xlink:href="#path-15"></use>
                        <mask id="mask-18" fill="white">
                            <use xlink:href="#path-17"></use>
                        </mask>
                        <use id="body-copy-3" stroke="none" fill="#C0945C" fill-rule="evenodd" transform="translate(43.503239, 38.779085) rotate(5.000000) translate(-43.503239, -38.779085) " xlink:href="#path-17"></use>
                        <use id="Combined-Shape-Copy-4" stroke="#D9C2A2" mask="url(#mask-20)" stroke-width="2" fill="#FEF6DF" fill-rule="evenodd" transform="translate(44.697271, 42.509111) scale(-1, 1) translate(-44.697271, -42.509111) " xlink:href="#path-19"></use>
                        <use id="Combined-Shape-Copy-5" stroke="#D9C2A2" mask="url(#mask-22)" stroke-width="2" fill="#FEF6DF" fill-rule="evenodd" xlink:href="#path-21"></use>
                        <path d="M18,5 C18.6966747,2.21330119 21,1 21,1 C21,1 23.2111026,1.8444102 24,5 C24.7888974,8.1555898 24,13 24,13 L18,13 C18,13 17.3033253,7.78669881 18,5 Z" id="Rectangle" stroke="none" fill="#C0945C" fill-rule="evenodd" transform="translate(21.020494, 7.000000) rotate(-12.000000) translate(-21.020494, -7.000000) "></path>
                        <path d="M24,5 C24.6966747,2.21330119 27,1 27,1 C27,1 29.2111026,1.8444102 30,5 C30.7888974,8.1555898 30,13 30,13 L24,13 C24,13 23.3033253,7.78669881 24,5 Z" id="Rectangle-Copy" stroke="none" fill="#C0945C" fill-rule="evenodd" transform="translate(27.020494, 7.000000) rotate(12.000000) translate(-27.020494, -7.000000) "></path>
                        <g id="nose" stroke="none" stroke-width="1" fill="none" fill-rule="evenodd" transform="translate(21.142857, 25.285714)">
                            <path d="M2.93877551,3.52380952 C4.08163265,3.52380952 5.79591837,2.67101857 5.79591837,1.61904762 C5.79591837,0.567076667 4.51673194,0.19047619 2.93877551,0.19047619 C1.36081908,0.19047619 0.0816326531,0.567076667 0.0816326531,1.61904762 C0.0816326531,2.67101857 1.79591837,3.52380952 2.93877551,3.52380952 Z" stroke="#595959" fill="#333333"></path>
                            <use id="Rectangle-5" stroke="#595959" mask="url(#mask-24)" stroke-width="2" fill="#D8D8D8" xlink:href="#path-23"></use>
                            <use id="Rectangle-5-Copy" stroke="#595959" mask="url(#mask-26)" stroke-width="2" fill="#D8D8D8" xlink:href="#path-25"></use>
                        </g>
                        <path d="M1.25,36.5 C1.25,36.5 2.46875,35 4.90625,35.5 C7.34375,36 7.75,38.5 7.75,38.5" id="Line" stroke-opacity="0.727439991" stroke="#E0AE6E" stroke-width="1" stroke-linecap="square" fill="none" transform="translate(4.500000, 36.948980) rotate(-6.000000) translate(-4.500000, -36.948980) "></path>
                        <path d="M40.25,36.5 C40.25,36.5 41.46875,35 43.90625,35.5 C46.34375,36 46.75,38.5 46.75,38.5" id="Line-Copy" stroke-opacity="0.727439991" stroke="#E0AE6E" stroke-width="1" stroke-linecap="square" fill="none" transform="translate(43.500000, 36.948980) scale(-1, 1) rotate(-6.000000) translate(-43.500000, -36.948980) "></path>
                    </g>
                </g>
            </g>
        </g>
    </g>
</svg>